{
    "asset" : {
        "generator" : "Khronos glTF Blender I/O v1.2.75",
        "version" : "2.0"
    },
    "scene" : 0,
    "scenes" : [
        {
            "name" : "Scene",
            "nodes" : [
                11
            ]
        }
    ],
    "nodes" : [
        {
            "mesh" : 0,
            "name" : "asa_Material #122_0"
        },
        {
            "children" : [
                0
            ],
            "name" : "asa",
            "rotation" : [
                -0.41150930523872375,
                -0.8074985146522522,
                0.3765427768230438,
                0.1918898969888687
            ],
            "scale" : [
                1.232565999031067,
                1,
                1.4570939540863037
            ],
            "translation" : [
                15.153575897216797,
                -20.67926025390625,
                35.066593170166016
            ]
        },
        {
            "mesh" : 1,
            "name" : "cubo_Material #66_0"
        },
        {
            "mesh" : 2,
            "name" : "peces_Material #340_0"
        },
        {
            "mesh" : 3,
            "name" : "peces_Material #341_0"
        },
        {
            "children" : [
                3,
                4
            ],
            "name" : "Node_9",
            "translation" : [
                -21.623422622680664,
                -5.681897164322436e-06,
                0
            ]
        },
        {
            "children" : [
                5
            ],
            "name" : "peces",
            "rotation" : [
                -0.6300151944160461,
                0.3210620880126953,
                -0.32106223702430725,
                0.6300151348114014
            ],
            "scale" : [
                2.2683560848236084,
                2.2683560848236084,
                4.1783127784729
            ],
            "translation" : [
                8.630165100097656,
                5.706569671630859,
                21.594480514526367
            ]
        },
        {
            "children" : [
                1,
                2,
                6
            ],
            "name" : "cubo",
            "rotation" : [
                -0.6300151348114014,
                0.3210621476173401,
                0.3210621476173401,
                0.6300151348114014
            ],
            "translation" : [
                61.552764892578125,
                0,
                -2.4464783668518066
            ]
        },
        {
            "children" : [
                7
            ],
            "name" : "RootNode"
        },
        {
            "children" : [
                8
            ],
            "name" : "bfbd4691f8444b72b582cc60bbf42eff.fbx",
            "rotation" : [
                0.7071068286895752,
                0,
                0,
                0.7071068286895752
            ]
        },
        {
            "children" : [
                9
            ],
            "name" : "RootNode (model correction matrix)"
        },
        {
            "children" : [
                10
            ],
            "name" : "RootNode (gltf orientation matrix)",
            "rotation" : [
                -0.7071067690849304,
                0,
                0,
                0.7071067690849304
            ],
            "scale" : [
                0.05757971853017807,
                0.05757971853017807,
                0.05757971853017807
            ],
            "translation" : [
                -3.311147689819336,
                0,
                -0.16872212290763855
            ]
        }
    ],
    "materials" : [
        {
            "doubleSided" : true,
            "emissiveFactor" : [
                0,
                0,
                0
            ],
            "name" : "Material_122",
            "pbrMetallicRoughness" : {
                "baseColorFactor" : [
                    0.05882349982857704,
                    0.05882349982857704,
                    0.05882349982857704,
                    1
                ],
                "metallicFactor" : 0,
                "roughnessFactor" : 0.8929713368415833
            }
        },
        {
            "doubleSided" : true,
            "emissiveFactor" : [
                0,
                0,
                0
            ],
            "name" : "Material_66",
            "pbrMetallicRoughness" : {
                "baseColorFactor" : [
                    0.20000000298023224,
                    0.09411759674549103,
                    0.062745101749897,
                    1
                ],
                "metallicFactor" : 0,
                "roughnessFactor" : 0.8929713368415833
            }
        },
        {
            "doubleSided" : true,
            "emissiveFactor" : [
                0,
                0,
                0
            ],
            "name" : "Material_340",
            "pbrMetallicRoughness" : {
                "baseColorFactor" : [
                    0.05882349982857704,
                    0.05882349982857704,
                    0.05882349982857704,
                    1
                ],
                "metallicFactor" : 0,
                "roughnessFactor" : 0.8929713368415833
            }
        },
        {
            "doubleSided" : true,
            "emissiveFactor" : [
                0,
                0,
                0
            ],
            "name" : "Material_341",
            "pbrMetallicRoughness" : {
                "baseColorFactor" : [
                    0.3294120132923126,
                    0.3294120132923126,
                    0.3294120132923126,
                    1
                ],
                "metallicFactor" : 0,
                "roughnessFactor" : 0.8929713368415833
            }
        }
    ],
    "meshes" : [
        {
            "name" : "asa_Material #122_0",
            "primitives" : [
                {
                    "attributes" : {
                        "POSITION" : 0,
                        "NORMAL" : 1,
                        "TEXCOORD_0" : 2
                    },
                    "indices" : 3,
                    "material" : 0
                }
            ]
        },
        {
            "name" : "cubo_Material #66_0",
            "primitives" : [
                {
                    "attributes" : {
                        "POSITION" : 4,
                        "NORMAL" : 5,
                        "TEXCOORD_0" : 6
                    },
                    "indices" : 7,
                    "material" : 1
                }
            ]
        },
        {
            "name" : "peces_Material #340_0",
            "primitives" : [
                {
                    "attributes" : {
                        "POSITION" : 8,
                        "NORMAL" : 9,
                        "TEXCOORD_0" : 10
                    },
                    "indices" : 11,
                    "material" : 2
                }
            ]
        },
        {
            "name" : "peces_Material #341_0",
            "primitives" : [
                {
                    "attributes" : {
                        "POSITION" : 12,
                        "NORMAL" : 13,
                        "TEXCOORD_0" : 14
                    },
                    "indices" : 15,
                    "material" : 3
                }
            ]
        }
    ],
    "accessors" : [
        {
            "bufferView" : 0,
            "componentType" : 5126,
            "count" : 320,
            "max" : [
                42.3288459777832,
                1.010394811630249,
                21.515823364257812
            ],
            "min" : [
                -0.7023894786834717,
                -0.7023894786834717,
                -0.24367180466651917
            ],
            "type" : "VEC3"
        },
        {
            "bufferView" : 1,
            "componentType" : 5126,
            "count" : 320,
            "type" : "VEC3"
        },
        {
            "bufferView" : 2,
            "componentType" : 5126,
            "count" : 320,
            "type" : "VEC2"
        },
        {
            "bufferView" : 3,
            "componentType" : 5123,
            "count" : 696,
            "type" : "SCALAR"
        },
        {
            "bufferView" : 4,
            "componentType" : 5126,
            "count" : 275,
            "max" : [
                24.30131721496582,
                23.11192512512207,
                37.7247314453125
            ],
            "min" : [
                -24.30131721496582,
                -23.111923217773438,
                -0.49204444885253906
            ],
            "type" : "VEC3"
        },
        {
            "bufferView" : 5,
            "componentType" : 5126,
            "count" : 275,
            "type" : "VEC3"
        },
        {
            "bufferView" : 6,
            "componentType" : 5126,
            "count" : 275,
            "type" : "VEC2"
        },
        {
            "bufferView" : 7,
            "componentType" : 5123,
            "count" : 342,
            "type" : "SCALAR"
        },
        {
            "bufferView" : 8,
            "componentType" : 5126,
            "count" : 886,
            "max" : [
                30.135662078857422,
                8.974642753601074,
                1.8218529224395752
            ],
            "min" : [
                14.047005653381348,
                -8.652140617370605,
                -7.0105485916137695
            ],
            "type" : "VEC3"
        },
        {
            "bufferView" : 9,
            "componentType" : 5126,
            "count" : 886,
            "type" : "VEC3"
        },
        {
            "bufferView" : 10,
            "componentType" : 5126,
            "count" : 886,
            "type" : "VEC2"
        },
        {
            "bufferView" : 11,
            "componentType" : 5123,
            "count" : 1680,
            "type" : "SCALAR"
        },
        {
            "bufferView" : 12,
            "componentType" : 5126,
            "count" : 360,
            "max" : [
                28.84576988220215,
                5.130181312561035,
                1.288544774055481
            ],
            "min" : [
                14.047004699707031,
                -4.584192276000977,
                -6.477240562438965
            ],
            "type" : "VEC3"
        },
        {
            "bufferView" : 13,
            "componentType" : 5126,
            "count" : 360,
            "type" : "VEC3"
        },
        {
            "bufferView" : 14,
            "componentType" : 5126,
            "count" : 360,
            "type" : "VEC2"
        },
        {
            "bufferView" : 15,
            "componentType" : 5123,
            "count" : 1008,
            "type" : "SCALAR"
        }
    ],
    "bufferViews" : [
        {
            "buffer" : 0,
            "byteLength" : 3840,
            "byteOffset" : 0
        },
        {
            "buffer" : 0,
            "byteLength" : 3840,
            "byteOffset" : 3840
        },
        {
            "buffer" : 0,
            "byteLength" : 2560,
            "byteOffset" : 7680
        },
        {
            "buffer" : 0,
            "byteLength" : 1392,
            "byteOffset" : 10240
        },
        {
            "buffer" : 0,
            "byteLength" : 3300,
            "byteOffset" : 11632
        },
        {
            "buffer" : 0,
            "byteLength" : 3300,
            "byteOffset" : 14932
        },
        {
            "buffer" : 0,
            "byteLength" : 2200,
            "byteOffset" : 18232
        },
        {
            "buffer" : 0,
            "byteLength" : 684,
            "byteOffset" : 20432
        },
        {
            "buffer" : 0,
            "byteLength" : 10632,
            "byteOffset" : 21116
        },
        {
            "buffer" : 0,
            "byteLength" : 10632,
            "byteOffset" : 31748
        },
        {
            "buffer" : 0,
            "byteLength" : 7088,
            "byteOffset" : 42380
        },
        {
            "buffer" : 0,
            "byteLength" : 3360,
            "byteOffset" : 49468
        },
        {
            "buffer" : 0,
            "byteLength" : 4320,
            "byteOffset" : 52828
        },
        {
            "buffer" : 0,
            "byteLength" : 4320,
            "byteOffset" : 57148
        },
        {
            "buffer" : 0,
            "byteLength" : 2880,
            "byteOffset" : 61468
        },
        {
            "buffer" : 0,
            "byteLength" : 2016,
            "byteOffset" : 64348
        }
    ],
    "buffers" : [
        {
            "byteLength" : 66364,
            "uri" : "data:application/octet-stream;base64,"
        }
    ]
}
