{
  "accessors": [
    {
      "bufferView": 2,
      "componentType": 5126,
      "count": 8628,
      "max": [
        1.5348426103591919,
        0.3794587254524231,
        1.6860101222991943
      ],
      "min": [
        -1.4259289503097534,
        -0.4082493782043457,
        -1.2462172508239746
      ],
      "type": "VEC3"
    },
    {
      "bufferView": 2,
      "byteOffset": 103536,
      "componentType": 5126,
      "count": 8628,
      "max": [
        0.99962419271469116,
        0.99973493814468384,
        0.99854886531829834
      ],
      "min": [
        -0.99991512298583984,
        -0.99999070167541504,
        -0.99987232685089111
      ],
      "type": "VEC3"
    },
    {
      "bufferView": 3,
      "componentType": 5126,
      "count": 8628,
      "max": [
        0.99908435344696045,
        0.99993366003036499,
        0.99977380037307739,
        1
      ],
      "min": [
        -0.9999241828918457,
        -0.99971753358840942,
        -0.98226243257522583,
        1
      ],
      "type": "VEC4"
    },
    {
      "bufferView": 1,
      "componentType": 5126,
      "count": 8628,
      "max": [
        0.82719671726226807,
        0.99804675579071045
      ],
      "min": [
        0.0019531234866008162,
        0.0019531233701854944
      ],
      "type": "VEC2"
    },
    {
      "bufferView": 1,
      "byteOffset": 69024,
      "componentType": 5126,
      "count": 8628,
      "max": [
        0.82719671726226807,
        0.99804675579071045
      ],
      "min": [
        0.0019531234866008162,
        0.0019531233701854944
      ],
      "type": "VEC2"
    },
    {
      "bufferView": 0,
      "componentType": 5125,
      "count": 49992,
      "max": [
        8627
      ],
      "min": [
        0
      ],
      "type": "SCALAR"
    }
  ],
  "asset": {
    "extras": {
      "author": "kodai100 (https://sketchfab.com/kodai100)",
      "license": "CC-BY-4.0 (http://creativecommons.org/licenses/by/4.0/)",
      "source": "https://sketchfab.com/models/10d31cb05a1844bb89e83ec0827196d9",
      "title": "Starfish"
    },
    "generator": "Sketchfab-3.53.2",
    "version": "2.0"
  },
  "bufferViews": [
    {
      "buffer": 0,
      "byteLength": 199968,
      "byteOffset": 0,
      "name": "floatBufferViews",
      "target": 34963
    },
    {
      "buffer": 0,
      "byteLength": 138048,
      "byteOffset": 199968,
      "byteStride": 8,
      "name": "floatBufferViews",
      "target": 34962
    },
    {
      "buffer": 0,
      "byteLength": 207072,
      "byteOffset": 338016,
      "byteStride": 12,
      "name": "floatBufferViews",
      "target": 34962
    },
    {
      "buffer": 0,
      "byteLength": 138048,
      "byteOffset": 545088,
      "byteStride": 16,
      "name": "floatBufferViews",
      "target": 34962
    }
  ],
  "buffers": [
    {
      "byteLength": 683136,
      "uri": "scene.bin"
    }
  ],
  "images": [
    {
      "uri": "textures/PM3D_Sphere3D_1_metallicRoughness.png"
    },
    {
      "uri": "textures/PM3D_Sphere3D_1_normal.png"
    },
    {
      "uri": "textures/PM3D_Sphere3D_1_baseColor.png"
    }
  ],
  "materials": [
    {
      "doubleSided": true,
      "emissiveFactor": [
        0,
        0,
        0
      ],
      "name": "PM3D_Sphere3D_1",
      "normalTexture": {
        "index": 1,
        "scale": 1,
        "texCoord": 0
      },
      "pbrMetallicRoughness": {
        "baseColorFactor": [
          1,
          1,
          1,
          1
        ],
        "baseColorTexture": {
          "index": 2,
          "texCoord": 0
        },
        "metallicFactor": 1,
        "metallicRoughnessTexture": {
          "index": 0,
          "texCoord": 0
        },
        "roughnessFactor": 1
      }
    }
  ],
  "meshes": [
    {
      "name": "PM3D_Sphere3D_1_PM3D_Sphere3D_1_0",
      "primitives": [
        {
          "attributes": {
            "NORMAL": 1,
            "POSITION": 0,
            "TANGENT": 2,
            "TEXCOORD_0": 3,
            "TEXCOORD_1": 4
          },
          "indices": 5,
          "material": 0,
          "mode": 4
        }
      ]
    }
  ],
  "nodes": [
    {
      "children": [
        1
      ],
      "name": "RootNode (gltf orientation matrix)",
      "rotation": [
        -0.70710678118654746,
        -0,
        -0,
        0.70710678118654757
      ]
    },
    {
      "children": [
        2
      ],
      "name": "RootNode (model correction matrix)"
    },
    {
      "children": [
        3
      ],
      "matrix": [
        1,
        0,
        0,
        0,
        0,
        0,
        1,
        0,
        0,
        -1,
        0,
        0,
        0,
        0,
        0,
        1
      ],
      "name": "e7ef324620474d629384c22bcae10b5f.fbx"
    },
    {
      "children": [
        4
      ],
      "name": "RootNode"
    },
    {
      "children": [
        5
      ],
      "name": "PM3D_Sphere3D_1"
    },
    {
      "mesh": 0,
      "name": "PM3D_Sphere3D_1_PM3D_Sphere3D_1_0"
    }
  ],
  "samplers": [
    {
      "magFilter": 9729,
      "minFilter": 9987,
      "wrapS": 10497,
      "wrapT": 10497
    }
  ],
  "scene": 0,
  "scenes": [
    {
      "name": "OSG_Scene",
      "nodes": [
        0
      ]
    }
  ],
  "textures": [
    {
      "sampler": 0,
      "source": 0
    },
    {
      "sampler": 0,
      "source": 1
    },
    {
      "sampler": 0,
      "source": 2
    }
  ]
}

