{
    "asset" : {
        "generator" : "Khronos glTF Blender I/O v1.2.75",
        "version" : "2.0"
    },
    "scene" : 0,
    "scenes" : [
        {
            "name" : "Scene",
            "nodes" : [
                5
            ]
        }
    ],
    "nodes" : [
        {
            "mesh" : 0,
            "name" : "ZBrush_defualt_group_default_0"
        },
        {
            "children" : [
                0
            ],
            "name" : "ZBrush_defualt_group",
            "rotation" : [
                -0.7071068286895752,
                0,
                0,
                0.7071068286895752
            ]
        },
        {
            "children" : [
                1
            ],
            "name" : "RootNode"
        },
        {
            "children" : [
                2
            ],
            "name" : "Alga_ondulada_uvw.FBX",
            "rotation" : [
                0.7071068286895752,
                0,
                0,
                0.7071068286895752
            ]
        },
        {
            "children" : [
                3
            ],
            "name" : "RootNode (model correction matrix)"
        },
        {
            "children" : [
                4
            ],
            "name" : "RootNode (gltf orientation matrix)",
            "rotation" : [
                -0.7071067690849304,
                0,
                0,
                0.7071067690849304
            ],
            "scale" : [
                0.37180066108703613,
                0.37180066108703613,
                0.37180066108703613
            ],
            "translation" : [
                -0.03398537635803223,
                0.6390416622161865,
                -0.019092679023742676
            ]
        }
    ],
    "materials" : [
        {
            "doubleSided" : true,
            "emissiveFactor" : [
                0,
                0,
                0
            ],
            "name" : "default",
            "normalTexture" : {
                "index" : 0,
                "texCoord" : 0
            },
            "pbrMetallicRoughness" : {
                "baseColorTexture" : {
                    "index" : 1,
                    "texCoord" : 0
                },
                "metallicRoughnessTexture" : {
                    "index" : 2,
                    "texCoord" : 0
                }
            }
        }
    ],
    "meshes" : [
        {
            "name" : "ZBrush_defualt_group_default_0",
            "primitives" : [
                {
                    "attributes" : {
                        "POSITION" : 0,
                        "NORMAL" : 1,
                        "TEXCOORD_0" : 2
                    },
                    "indices" : 3,
                    "material" : 0
                }
            ]
        }
    ],
    "textures" : [
        {
            "source" : 0
        },
        {
            "source" : 1
        },
        {
            "source" : 2
        }
    ],
    "images" : [
        {
            "bufferView" : 4,
            "mimeType" : "image/png",
            "name" : "default_normal"
        },
        {
            "bufferView" : 5,
            "mimeType" : "image/png",
            "name" : "default_baseColor"
        },
        {
            "bufferView" : 6,
            "mimeType" : "image/png",
            "name" : "default_metallicRoughness"
        }
    ],
    "accessors" : [
        {
            "bufferView" : 0,
            "componentType" : 5126,
            "count" : 11670,
            "max" : [
                0.8633102178573608,
                1.008709192276001,
                6.556929588317871
            ],
            "min" : [
                -0.37278100848197937,
                -0.5059521794319153,
                -1.2219065427780151
            ],
            "type" : "VEC3"
        },
        {
            "bufferView" : 1,
            "componentType" : 5126,
            "count" : 11670,
            "type" : "VEC3"
        },
        {
            "bufferView" : 2,
            "componentType" : 5126,
            "count" : 11670,
            "type" : "VEC2"
        },
        {
            "bufferView" : 3,
            "componentType" : 5123,
            "count" : 56922,
            "type" : "SCALAR"
        }
    ],
    "bufferViews" : [
        {
            "buffer" : 0,
            "byteLength" : 140040,
            "byteOffset" : 0
        },
        {
            "buffer" : 0,
            "byteLength" : 140040,
            "byteOffset" : 140040
        },
        {
            "buffer" : 0,
            "byteLength" : 93360,
            "byteOffset" : 280080
        },
        {
            "buffer" : 0,
            "byteLength" : 113844,
            "byteOffset" : 373440
        },
        {
            "buffer" : 0,
            "byteLength" : 551748,
            "byteOffset" : 487284
        },
        {
            "buffer" : 0,
            "byteLength" : 258842,
            "byteOffset" : 1039032
        },
        {
            "buffer" : 0,
            "byteLength" : 243,
            "byteOffset" : 1297876
        }
    ],
    "buffers" : [
        {
            "byteLength" : 1298120,
            "uri" : "data:application/octet-stream;base64,"
        }
    ]
}
