{
    "asset" : {
        "generator" : "Khronos glTF Blender I/O v1.2.75",
        "version" : "2.0"
    },
    "scene" : 0,
    "scenes" : [
        {
            "name" : "Scene",
            "nodes" : [
                5
            ]
        }
    ],
    "nodes" : [
        {
            "mesh" : 0,
            "name" : "Mesh_0"
        },
        {
            "mesh" : 1,
            "name" : "Mesh_1"
        },
        {
            "mesh" : 2,
            "name" : "Mesh_2"
        },
        {
            "children" : [
                0,
                1,
                2
            ],
            "name" : "IS-Pe_Dolphin(FS)_001_Pre1(obj).obj.cleaner.materialmerger.gles"
        },
        {
            "children" : [
                3
            ],
            "name" : "RootNode (model correction matrix)"
        },
        {
            "children" : [
                4
            ],
            "name" : "RootNode (gltf orientation matrix)",
            "rotation" : [
                -0.7071067690849304,
                0,
                0,
                0.7071067690849304
            ],
            "scale" : [
                0.10885611176490784,
                0.10885612666606903,
                0.10885612666606903
            ],
            "translation" : [
                0,
                1.2409263849258423,
                0
            ]
        }
    ],
    "materials" : [
        {
            "doubleSided" : true,
            "emissiveFactor" : [
                0,
                0,
                0
            ],
            "name" : "material_0",
            "pbrMetallicRoughness" : {
                "baseColorFactor" : [
                    0.16427907347679138,
                    0.32700300216674805,
                    0.8000000715255737,
                    1
                ],
                "metallicFactor" : 1,
                "roughnessFactor" : 0.6000000238418579
            }
        }
    ],
    "meshes" : [
        {
            "name" : "Mesh_0",
            "primitives" : [
                {
                    "attributes" : {
                        "POSITION" : 0,
                        "NORMAL" : 1
                    },
                    "indices" : 2,
                    "material" : 0
                }
            ]
        },
        {
            "name" : "Mesh_1",
            "primitives" : [
                {
                    "attributes" : {
                        "POSITION" : 3,
                        "NORMAL" : 4
                    },
                    "indices" : 5,
                    "material" : 0
                }
            ]
        },
        {
            "name" : "Mesh_2",
            "primitives" : [
                {
                    "attributes" : {
                        "POSITION" : 6,
                        "NORMAL" : 7
                    },
                    "indices" : 8,
                    "material" : 0
                }
            ]
        }
    ],
    "accessors" : [
        {
            "bufferView" : 0,
            "componentType" : 5126,
            "count" : 938,
            "max" : [
                3.755687952041626,
                -0.7884560823440552,
                6.290864944458008
            ],
            "min" : [
                2.530949592590332,
                -1.6050093173980713,
                5.064843654632568
            ],
            "type" : "VEC3"
        },
        {
            "bufferView" : 1,
            "componentType" : 5126,
            "count" : 938,
            "type" : "VEC3"
        },
        {
            "bufferView" : 2,
            "componentType" : 5123,
            "count" : 948,
            "type" : "SCALAR"
        },
        {
            "bufferView" : 3,
            "componentType" : 5126,
            "count" : 10254,
            "max" : [
                1.4903864860534668,
                2.6534671783447266,
                17.00629425048828
            ],
            "min" : [
                -1.4903864860534668,
                -2.6534671783447266,
                9.399998664855957
            ],
            "type" : "VEC3"
        },
        {
            "bufferView" : 4,
            "componentType" : 5126,
            "count" : 10254,
            "type" : "VEC3"
        },
        {
            "bufferView" : 5,
            "componentType" : 5123,
            "count" : 37800,
            "type" : "SCALAR"
        },
        {
            "bufferView" : 6,
            "componentType" : 5126,
            "count" : 31954,
            "max" : [
                7.046637058258057,
                0.800000011920929,
                11.199999809265137
            ],
            "min" : [
                -7.06630277633667,
                -1.8091899156570435,
                -11.281929016113281
            ],
            "type" : "VEC3"
        },
        {
            "bufferView" : 7,
            "componentType" : 5126,
            "count" : 31954,
            "type" : "VEC3"
        },
        {
            "bufferView" : 8,
            "componentType" : 5123,
            "count" : 156150,
            "type" : "SCALAR"
        }
    ],
    "bufferViews" : [
        {
            "buffer" : 0,
            "byteLength" : 11256,
            "byteOffset" : 0
        },
        {
            "buffer" : 0,
            "byteLength" : 11256,
            "byteOffset" : 11256
        },
        {
            "buffer" : 0,
            "byteLength" : 1896,
            "byteOffset" : 22512
        },
        {
            "buffer" : 0,
            "byteLength" : 123048,
            "byteOffset" : 24408
        },
        {
            "buffer" : 0,
            "byteLength" : 123048,
            "byteOffset" : 147456
        },
        {
            "buffer" : 0,
            "byteLength" : 75600,
            "byteOffset" : 270504
        },
        {
            "buffer" : 0,
            "byteLength" : 383448,
            "byteOffset" : 346104
        },
        {
            "buffer" : 0,
            "byteLength" : 383448,
            "byteOffset" : 729552
        },
        {
            "buffer" : 0,
            "byteLength" : 312300,
            "byteOffset" : 1113000
        }
    ],
    "buffers" : [
        {
            "byteLength" : 1425300,
            "uri" : "data:application/octet-stream;base64,"
        }
    ]
}
