{
  "accessors": [
    {
      "bufferView": 2,
      "componentType": 5126,
      "count": 65532,
      "max": [
        9.3366193771362305,
        8.2608013153076172,
        9.1249990463256836
      ],
      "min": [
        -9.3366823196411133,
        -5.995048999786377,
        -9.12493896484375
      ],
      "type": "VEC3"
    },
    {
      "bufferView": 2,
      "byteOffset": 786384,
      "componentType": 5126,
      "count": 65532,
      "max": [
        0.99999862909317017,
        0.99991703033447266,
        1
      ],
      "min": [
        -0.99999988079071045,
        -0.99999988079071045,
        -0.99999994039535522
      ],
      "type": "VEC3"
    },
    {
      "bufferView": 1,
      "componentType": 5126,
      "count": 65532,
      "max": [
        0.99974000453948975,
        0.9001460075378418
      ],
      "min": [
        0.00024399999529123306,
        0.00016399999731220305
      ],
      "type": "VEC2"
    },
    {
      "bufferView": 0,
      "componentType": 5125,
      "count": 267489,
      "max": [
        65531
      ],
      "min": [
        0
      ],
      "type": "SCALAR"
    },
    {
      "bufferView": 2,
      "byteOffset": 1572768,
      "componentType": 5126,
      "count": 65532,
      "max": [
        5.8984379768371582,
        1.792809009552002,
        4.9447269439697266
      ],
      "min": [
        -2.2600851058959961,
        -8.2608146667480469,
        -4.926426887512207
      ],
      "type": "VEC3"
    },
    {
      "bufferView": 2,
      "byteOffset": 2359152,
      "componentType": 5126,
      "count": 65532,
      "max": [
        0.9999537467956543,
        0.99997830390930176,
        0.99980628490447998
      ],
      "min": [
        -0.99992966651916504,
        -0.99999988079071045,
        -0.99997526407241821
      ],
      "type": "VEC3"
    },
    {
      "bufferView": 1,
      "byteOffset": 524256,
      "componentType": 5126,
      "count": 65532,
      "max": [
        0.99973201751708984,
        0.99194300174713135
      ],
      "min": [
        0.00024399999529123306,
        0.0001720000000204891
      ],
      "type": "VEC2"
    },
    {
      "bufferView": 0,
      "byteOffset": 1069956,
      "componentType": 5125,
      "count": 247398,
      "max": [
        65531
      ],
      "min": [
        0
      ],
      "type": "SCALAR"
    },
    {
      "bufferView": 2,
      "byteOffset": 3145536,
      "componentType": 5126,
      "count": 65532,
      "max": [
        5.4936671257019043,
        1.858119010925293,
        5.7856059074401855
      ],
      "min": [
        -6.121528148651123,
        -4.2549948692321777,
        -6.2524170875549316
      ],
      "type": "VEC3"
    },
    {
      "bufferView": 2,
      "byteOffset": 3931920,
      "componentType": 5126,
      "count": 65532,
      "max": [
        0.99934029579162598,
        0.99999791383743286,
        0.99996912479400635
      ],
      "min": [
        -0.99994593858718872,
        -0.99999988079071045,
        -0.99982726573944092
      ],
      "type": "VEC3"
    },
    {
      "bufferView": 1,
      "byteOffset": 1048512,
      "componentType": 5126,
      "count": 65532,
      "max": [
        0.99974602460861206,
        0.99682599306106567
      ],
      "min": [
        0.00024399999529123306,
        0.00015399999392684549
      ],
      "type": "VEC2"
    },
    {
      "bufferView": 0,
      "byteOffset": 2059548,
      "componentType": 5125,
      "count": 283347,
      "max": [
        65531
      ],
      "min": [
        0
      ],
      "type": "SCALAR"
    },
    {
      "bufferView": 2,
      "byteOffset": 4718304,
      "componentType": 5126,
      "count": 65534,
      "max": [
        5.5493640899658203,
        1.8320020437240601,
        5.7212328910827637
      ],
      "min": [
        -2.3729031085968018,
        -4.3387351036071777,
        -6.2539219856262207
      ],
      "type": "VEC3"
    },
    {
      "bufferView": 2,
      "byteOffset": 5504712,
      "componentType": 5126,
      "count": 65534,
      "max": [
        0.99985754489898682,
        0.99998188018798828,
        0.99997067451477051
      ],
      "min": [
        -0.99991148710250854,
        -0.99999970197677612,
        -0.99999034404754639
      ],
      "type": "VEC3"
    },
    {
      "bufferView": 1,
      "byteOffset": 1572768,
      "componentType": 5126,
      "count": 65534,
      "max": [
        0.99974298477172852,
        0.98410302400588989
      ],
      "min": [
        0.00024399999529123306,
        0.00020900000527035445
      ],
      "type": "VEC2"
    },
    {
      "bufferView": 0,
      "byteOffset": 3192936,
      "componentType": 5125,
      "count": 235098,
      "max": [
        65533
      ],
      "min": [
        0
      ],
      "type": "SCALAR"
    },
    {
      "bufferView": 2,
      "byteOffset": 6291120,
      "componentType": 5126,
      "count": 65532,
      "max": [
        9.3366193771362305,
        8.2608146667480469,
        9.1249904632568359
      ],
      "min": [
        -9.3366813659667969,
        -4.2972397804260254,
        -9.12493896484375
      ],
      "type": "VEC3"
    },
    {
      "bufferView": 2,
      "byteOffset": 7077504,
      "componentType": 5126,
      "count": 65532,
      "max": [
        0.99996930360794067,
        1,
        0.99999934434890747
      ],
      "min": [
        -0.99880003929138184,
        -1,
        -0.99999988079071045
      ],
      "type": "VEC3"
    },
    {
      "bufferView": 1,
      "byteOffset": 2097040,
      "componentType": 5126,
      "count": 65532,
      "max": [
        0.99973100423812866,
        0.95190399885177612
      ],
      "min": [
        0.00024399999529123306,
        0.00015300000086426735
      ],
      "type": "VEC2"
    },
    {
      "bufferView": 0,
      "byteOffset": 4133328,
      "componentType": 5125,
      "count": 316968,
      "max": [
        65531
      ],
      "min": [
        0
      ],
      "type": "SCALAR"
    },
    {
      "bufferView": 2,
      "byteOffset": 7863888,
      "componentType": 5126,
      "count": 65532,
      "max": [
        8.2306995391845703,
        6.4806041717529297,
        9.1128044128417969
      ],
      "min": [
        -9.1361980438232422,
        1.8368899822235107,
        -3.8073420524597168
      ],
      "type": "VEC3"
    },
    {
      "bufferView": 2,
      "byteOffset": 8650272,
      "componentType": 5126,
      "count": 65532,
      "max": [
        0.99982917308807373,
        0.99998551607131958,
        0.99999964237213135
      ],
      "min": [
        -0.99999988079071045,
        -1,
        -0.99973726272583008
      ],
      "type": "VEC3"
    },
    {
      "bufferView": 1,
      "byteOffset": 2621296,
      "componentType": 5126,
      "count": 65532,
      "max": [
        0.99975097179412842,
        0.94604498147964478
      ],
      "min": [
        0.00024399999529123306,
        0.00015999999595806003
      ],
      "type": "VEC2"
    },
    {
      "bufferView": 0,
      "byteOffset": 5401200,
      "componentType": 5125,
      "count": 295704,
      "max": [
        65531
      ],
      "min": [
        0
      ],
      "type": "SCALAR"
    },
    {
      "bufferView": 2,
      "byteOffset": 9436656,
      "componentType": 5126,
      "count": 65533,
      "max": [
        9.3195295333862305,
        8.2608013153076172,
        9.1249904632568359
      ],
      "min": [
        -9.3250494003295898,
        1.8267350196838379,
        -9.1208992004394531
      ],
      "type": "VEC3"
    },
    {
      "bufferView": 2,
      "byteOffset": 10223052,
      "componentType": 5126,
      "count": 65533,
      "max": [
        0.998679518699646,
        0.9997984766960144,
        0.99999964237213135
      ],
      "min": [
        -0.99999988079071045,
        -1,
        -0.99999994039535522
      ],
      "type": "VEC3"
    },
    {
      "bufferView": 1,
      "byteOffset": 3145552,
      "componentType": 5126,
      "count": 65533,
      "max": [
        0.99969601631164551,
        0.91870099306106567
      ],
      "min": [
        0.00024399999529123306,
        0.00028599999495781958
      ],
      "type": "VEC2"
    },
    {
      "bufferView": 0,
      "byteOffset": 6584016,
      "componentType": 5125,
      "count": 292812,
      "max": [
        65532
      ],
      "min": [
        0
      ],
      "type": "SCALAR"
    },
    {
      "bufferView": 2,
      "byteOffset": 11009448,
      "componentType": 5126,
      "count": 65532,
      "max": [
        9.3366193771362305,
        8.260798454284668,
        9.1121997833251953
      ],
      "min": [
        -9.3236122131347656,
        0.12678200006484985,
        -9.12493896484375
      ],
      "type": "VEC3"
    },
    {
      "bufferView": 2,
      "byteOffset": 11795832,
      "componentType": 5126,
      "count": 65532,
      "max": [
        0.99999970197677612,
        0.99997830390930176,
        0.99879401922225952
      ],
      "min": [
        -0.99999547004699707,
        -1,
        -0.9994281530380249
      ],
      "type": "VEC3"
    },
    {
      "bufferView": 1,
      "byteOffset": 3669816,
      "componentType": 5126,
      "count": 65532,
      "max": [
        0.99971801042556763,
        0.97241199016571045
      ],
      "min": [
        0.00024399999529123306,
        0.00019999999494757503
      ],
      "type": "VEC2"
    },
    {
      "bufferView": 0,
      "byteOffset": 7755264,
      "componentType": 5125,
      "count": 278403,
      "max": [
        65531
      ],
      "min": [
        0
      ],
      "type": "SCALAR"
    },
    {
      "bufferView": 2,
      "byteOffset": 12582216,
      "componentType": 5126,
      "count": 65534,
      "max": [
        9.3366193771362305,
        8.260798454284668,
        9.1141510009765625
      ],
      "min": [
        -5.9096832275390625,
        0.12492600083351135,
        -9.12493896484375
      ],
      "type": "VEC3"
    },
    {
      "bufferView": 2,
      "byteOffset": 13368624,
      "componentType": 5126,
      "count": 65534,
      "max": [
        0.99999785423278809,
        1,
        0.9999997615814209
      ],
      "min": [
        -0.99501210451126099,
        -0.99999994039535522,
        -0.99997609853744507
      ],
      "type": "VEC3"
    },
    {
      "bufferView": 1,
      "byteOffset": 4194072,
      "componentType": 5126,
      "count": 65534,
      "max": [
        0.99971199035644531,
        0.95578402280807495
      ],
      "min": [
        0.00024399999529123306,
        0.00025099999038502574
      ],
      "type": "VEC2"
    },
    {
      "bufferView": 0,
      "byteOffset": 8868876,
      "componentType": 5125,
      "count": 268206,
      "max": [
        65533
      ],
      "min": [
        0
      ],
      "type": "SCALAR"
    },
    {
      "bufferView": 2,
      "byteOffset": 14155032,
      "componentType": 5126,
      "count": 65532,
      "max": [
        4.8471779823303223,
        6.6362161636352539,
        4.317039966583252
      ],
      "min": [
        -9.3328380584716797,
        1.8319989442825317,
        -6.9437751770019531
      ],
      "type": "VEC3"
    },
    {
      "bufferView": 2,
      "byteOffset": 14941416,
      "componentType": 5126,
      "count": 65532,
      "max": [
        0.9999997615814209,
        0.99998229742050171,
        0.99999994039535522
      ],
      "min": [
        -0.99999940395355225,
        -1,
        -0.99999904632568359
      ],
      "type": "VEC3"
    },
    {
      "bufferView": 1,
      "byteOffset": 4718344,
      "componentType": 5126,
      "count": 65532,
      "max": [
        0.99969500303268433,
        0.95961600542068481
      ],
      "min": [
        0.00024399999529123306,
        0.00021100000594742596
      ],
      "type": "VEC2"
    },
    {
      "bufferView": 0,
      "byteOffset": 9941700,
      "componentType": 5125,
      "count": 279456,
      "max": [
        65531
      ],
      "min": [
        0
      ],
      "type": "SCALAR"
    },
    {
      "bufferView": 2,
      "byteOffset": 15727800,
      "componentType": 5126,
      "count": 62183,
      "max": [
        4.8539338111877441,
        6.7397050857543945,
        4.0166192054748535
      ],
      "min": [
        -9.3367252349853516,
        1.8250060081481934,
        -9.1178770065307617
      ],
      "type": "VEC3"
    },
    {
      "bufferView": 2,
      "byteOffset": 16473996,
      "componentType": 5126,
      "count": 62183,
      "max": [
        0.99999946355819702,
        0.99872434139251709,
        0.99999940395355225
      ],
      "min": [
        -0.99999988079071045,
        -1,
        -0.99999916553497314
      ],
      "type": "VEC3"
    },
    {
      "bufferView": 1,
      "byteOffset": 5242600,
      "componentType": 5126,
      "count": 62183,
      "max": [
        0.99967098236083984,
        0.97924798727035522
      ],
      "min": [
        0.00024399999529123306,
        0.00025000001187436283
      ],
      "type": "VEC2"
    },
    {
      "bufferView": 0,
      "byteOffset": 11059524,
      "componentType": 5125,
      "count": 239049,
      "max": [
        62182
      ],
      "min": [
        0
      ],
      "type": "SCALAR"
    }
  ],
  "asset": {
    "extras": {
      "author": "artfletch (https://sketchfab.com/artfletch)",
      "license": "CC-BY-4.0 (http://creativecommons.org/licenses/by/4.0/)",
      "source": "https://sketchfab.com/3d-models/boy-and-dolphin-fountain-51b5f32958094a5ba448aece56a06345",
      "title": "Boy And Dolphin Fountain"
    },
    "generator": "Sketchfab-10.23.0",
    "version": "2.0"
  },
  "bufferViews": [
    {
      "buffer": 0,
      "byteLength": 12015720,
      "byteOffset": 0,
      "name": "floatBufferViews",
      "target": 34963
    },
    {
      "buffer": 0,
      "byteLength": 5740064,
      "byteOffset": 12015720,
      "byteStride": 8,
      "name": "floatBufferViews",
      "target": 34962
    },
    {
      "buffer": 0,
      "byteLength": 17220192,
      "byteOffset": 17755784,
      "byteStride": 12,
      "name": "floatBufferViews",
      "target": 34962
    }
  ],
  "buffers": [
    {
      "byteLength": 34975976,
      "uri": "scene.bin"
    }
  ],
  "extensionsUsed": [
    "KHR_materials_unlit"
  ],
  "images": [
    {
      "uri": "textures/FishFountain02_FishFountain02_u1_v1_baseColor.jpeg"
    }
  ],
  "materials": [
    {
      "doubleSided": true,
      "emissiveFactor": [
        0,
        0,
        0
      ],
      "extensions": {
        "KHR_materials_unlit": {}
      },
      "name": "FishFountain02_FishFountain02_u1_v1",
      "pbrMetallicRoughness": {
        "baseColorFactor": [
          1,
          1,
          1,
          1
        ],
        "baseColorTexture": {
          "index": 0,
          "texCoord": 0
        },
        "metallicFactor": 0,
        "roughnessFactor": 1
      }
    }
  ],
  "meshes": [
    {
      "primitives": [
        {
          "attributes": {
            "NORMAL": 1,
            "POSITION": 0,
            "TEXCOORD_0": 2
          },
          "indices": 3,
          "material": 0,
          "mode": 4
        }
      ]
    },
    {
      "primitives": [
        {
          "attributes": {
            "NORMAL": 5,
            "POSITION": 4,
            "TEXCOORD_0": 6
          },
          "indices": 7,
          "material": 0,
          "mode": 4
        }
      ]
    },
    {
      "primitives": [
        {
          "attributes": {
            "NORMAL": 9,
            "POSITION": 8,
            "TEXCOORD_0": 10
          },
          "indices": 11,
          "material": 0,
          "mode": 4
        }
      ]
    },
    {
      "primitives": [
        {
          "attributes": {
            "NORMAL": 13,
            "POSITION": 12,
            "TEXCOORD_0": 14
          },
          "indices": 15,
          "material": 0,
          "mode": 4
        }
      ]
    },
    {
      "primitives": [
        {
          "attributes": {
            "NORMAL": 17,
            "POSITION": 16,
            "TEXCOORD_0": 18
          },
          "indices": 19,
          "material": 0,
          "mode": 4
        }
      ]
    },
    {
      "primitives": [
        {
          "attributes": {
            "NORMAL": 21,
            "POSITION": 20,
            "TEXCOORD_0": 22
          },
          "indices": 23,
          "material": 0,
          "mode": 4
        }
      ]
    },
    {
      "primitives": [
        {
          "attributes": {
            "NORMAL": 25,
            "POSITION": 24,
            "TEXCOORD_0": 26
          },
          "indices": 27,
          "material": 0,
          "mode": 4
        }
      ]
    },
    {
      "primitives": [
        {
          "attributes": {
            "NORMAL": 29,
            "POSITION": 28,
            "TEXCOORD_0": 30
          },
          "indices": 31,
          "material": 0,
          "mode": 4
        }
      ]
    },
    {
      "primitives": [
        {
          "attributes": {
            "NORMAL": 33,
            "POSITION": 32,
            "TEXCOORD_0": 34
          },
          "indices": 35,
          "material": 0,
          "mode": 4
        }
      ]
    },
    {
      "primitives": [
        {
          "attributes": {
            "NORMAL": 37,
            "POSITION": 36,
            "TEXCOORD_0": 38
          },
          "indices": 39,
          "material": 0,
          "mode": 4
        }
      ]
    },
    {
      "primitives": [
        {
          "attributes": {
            "NORMAL": 41,
            "POSITION": 40,
            "TEXCOORD_0": 42
          },
          "indices": 43,
          "material": 0,
          "mode": 4
        }
      ]
    }
  ],
  "nodes": [
    {
      "children": [
        1
      ],
      "name": "RootNode (gltf orientation matrix)",
      "rotation": [
        -0.70710678118654746,
        -0,
        -0,
        0.70710678118654757
      ]
    },
    {
      "children": [
        2
      ],
      "matrix": [
        1,
        0,
        0,
        0,
        0,
        2.2204460492503131e-16,
        -1,
        0,
        0,
        1,
        2.2204460492503131e-16,
        0,
        0,
        -4.4345855712890625e-05,
        1.6689300537109375e-05,
        1
      ],
      "name": "RootNode (model correction matrix)"
    },
    {
      "children": [
        3,
        4,
        5,
        6,
        7,
        8,
        9,
        10,
        11,
        12,
        13
      ],
      "name": "FishFountain02.obj.cleaner.materialmerger.gles"
    },
    {
      "mesh": 0,
      "name": ""
    },
    {
      "mesh": 1,
      "name": ""
    },
    {
      "mesh": 2,
      "name": ""
    },
    {
      "mesh": 3,
      "name": ""
    },
    {
      "mesh": 4,
      "name": ""
    },
    {
      "mesh": 5,
      "name": ""
    },
    {
      "mesh": 6,
      "name": ""
    },
    {
      "mesh": 7,
      "name": ""
    },
    {
      "mesh": 8,
      "name": ""
    },
    {
      "mesh": 9,
      "name": ""
    },
    {
      "mesh": 10,
      "name": ""
    }
  ],
  "samplers": [
    {
      "magFilter": 9729,
      "minFilter": 9987,
      "wrapS": 10497,
      "wrapT": 10497
    }
  ],
  "scene": 0,
  "scenes": [
    {
      "name": "OSG_Scene",
      "nodes": [
        0
      ]
    }
  ],
  "textures": [
    {
      "sampler": 0,
      "source": 0
    }
  ]
}

