{
    "asset" : {
        "generator" : "Khronos glTF Blender I/O v1.2.75",
        "version" : "2.0"
    },
    "scene" : 0,
    "scenes" : [
        {
            "name" : "Scene",
            "nodes" : [
                20
            ]
        }
    ],
    "nodes" : [
        {
            "mesh" : 0,
            "name" : "Agua_0"
        },
        {
            "children" : [
                0
            ],
            "name" : "Agua",
            "scale" : [
                0.727940022945404,
                0.4259899854660034,
                0.45903998613357544
            ],
            "translation" : [
                0.00014000000373926014,
                0.000590000010561198,
                -0.11500000208616257
            ]
        },
        {
            "mesh" : 1,
            "name" : "Arena_0"
        },
        {
            "children" : [
                2
            ],
            "name" : "Arena",
            "scale" : [
                0.7312899827957153,
                0.43059998750686646,
                0.10199999809265137
            ],
            "translation" : [
                9.999999747378752e-06,
                -0.00022000000171829015,
                -0.4728100001811981
            ]
        },
        {
            "mesh" : 2,
            "name" : "Base_0"
        },
        {
            "children" : [
                4
            ],
            "name" : "Base",
            "translation" : [
                0,
                0,
                -0.6000000238418579
            ]
        },
        {
            "mesh" : 3,
            "name" : "Burbujas_0"
        },
        {
            "children" : [
                6
            ],
            "name" : "Burbujas",
            "rotation" : [
                0.6964208483695984,
                -0.12246647477149963,
                -0.12246647477149963,
                0.6964208483695984
            ],
            "scale" : [
                0.13876479864120483,
                0.25360000133514404,
                0.13876479864120483
            ],
            "translation" : [
                0.094200000166893,
                0.1587900072336197,
                0.20399999618530273
            ]
        },
        {
            "mesh" : 4,
            "name" : "Burbujas.001_0"
        },
        {
            "children" : [
                8
            ],
            "name" : "Burbujas.001",
            "rotation" : [
                0.6812378764152527,
                0.18951265513896942,
                0.18951265513896942,
                0.6812378764152527
            ],
            "scale" : [
                0.13876499235630035,
                0.25360000133514404,
                0.13876499235630035
            ],
            "translation" : [
                -0.3211599886417389,
                -0.30493998527526855,
                -0.1836400032043457
            ]
        },
        {
            "name" : "Lamp.001"
        },
        {
            "children" : [
                10
            ],
            "name" : "Lamp",
            "rotation" : [
                0.16907447576522827,
                0.2721706032752991,
                0.7558797597885132,
                0.5709490180015564
            ],
            "scale" : [
                0.9999975562095642,
                0.9999958276748657,
                0.9999960660934448
            ],
            "translation" : [
                4.076250076293945,
                1.0054500102996826,
                5.903860092163086
            ]
        },
        {
            "mesh" : 5,
            "name" : "Pecera_0"
        },
        {
            "children" : [
                12
            ],
            "name" : "Pecera",
            "scale" : [
                0.7634299993515015,
                0.4546299874782562,
                0.6000000238418579
            ],
            "translation" : [
                9.999999747378752e-06,
                -0.00022000000171829015,
                0
            ]
        },
        {
            "mesh" : 6,
            "name" : "Pez_payaso_0"
        },
        {
            "children" : [
                14
            ],
            "name" : "Pez_payaso",
            "rotation" : [
                0.03176138550043106,
                -0.1636396050453186,
                -0.18788909912109375,
                0.9679417014122009
            ],
            "scale" : [
                0.04610325023531914,
                0.04610781371593475,
                0.046103768050670624
            ],
            "translation" : [
                -0.019379999488592148,
                0.20023000240325928,
                0.05812999978661537
            ]
        },
        {
            "mesh" : 7,
            "name" : "Pez_payaso.003_0"
        },
        {
            "children" : [
                16
            ],
            "name" : "Pez_payaso.003",
            "rotation" : [
                0.08914622664451599,
                0.41870030760765076,
                0.18823611736297607,
                0.8839175701141357
            ],
            "scale" : [
                0.04213026165962219,
                0.042133428156375885,
                0.04213212803006172
            ],
            "translation" : [
                -0.4108000099658966,
                -0.3513700067996979,
                -0.28290998935699463
            ]
        },
        {
            "children" : [
                1,
                3,
                5,
                7,
                9,
                11,
                13,
                15,
                17
            ],
            "name" : "Root"
        },
        {
            "children" : [
                18
            ],
            "name" : "RootNode (model correction matrix)"
        },
        {
            "children" : [
                19
            ],
            "name" : "RootNode (gltf orientation matrix)",
            "rotation" : [
                -0.7071067690849304,
                0,
                0,
                0.7071067690849304
            ],
            "scale" : [
                2.1064798831939697,
                2.1064798831939697,
                2.1064798831939697
            ],
            "translation" : [
                0.9578527808189392,
                1.3077943325042725,
                0.30383554100990295
            ]
        }
    ],
    "materials" : [
        {
            "alphaMode" : "BLEND",
            "doubleSided" : true,
            "name" : "Mat_agua",
            "pbrMetallicRoughness" : {}
        },
        {
            "doubleSided" : true,
            "name" : "Mat_arena",
            "pbrMetallicRoughness" : {}
        },
        {
            "doubleSided" : true,
            "name" : "Root",
            "pbrMetallicRoughness" : {}
        },
        {
            "alphaMode" : "BLEND",
            "doubleSided" : true,
            "emissiveFactor" : [
                0.04999999701976776,
                0.04999999701976776,
                0.04999999701976776
            ],
            "name" : "Burbujas",
            "pbrMetallicRoughness" : {}
        },
        {
            "alphaMode" : "BLEND",
            "doubleSided" : true,
            "emissiveFactor" : [
                0.029999999329447746,
                0.029999999329447746,
                0.029999999329447746
            ],
            "name" : "Mat_cristal",
            "pbrMetallicRoughness" : {}
        },
        {
            "alphaMode" : "BLEND",
            "doubleSided" : true,
            "name" : "Mat_pez_payaso",
            "pbrMetallicRoughness" : {}
        }
    ],
    "meshes" : [
        {
            "name" : "Agua_0",
            "primitives" : [
                {
                    "attributes" : {
                        "POSITION" : 0,
                        "NORMAL" : 1
                    },
                    "indices" : 2,
                    "material" : 0
                }
            ]
        },
        {
            "name" : "Arena_0",
            "primitives" : [
                {
                    "attributes" : {
                        "POSITION" : 3,
                        "NORMAL" : 4
                    },
                    "indices" : 5,
                    "material" : 1
                }
            ]
        },
        {
            "name" : "Base_0",
            "primitives" : [
                {
                    "attributes" : {
                        "POSITION" : 6,
                        "NORMAL" : 7
                    },
                    "indices" : 8,
                    "material" : 2
                }
            ]
        },
        {
            "name" : "Burbujas_0",
            "primitives" : [
                {
                    "attributes" : {
                        "POSITION" : 9,
                        "NORMAL" : 10,
                        "TEXCOORD_0" : 11
                    },
                    "indices" : 8,
                    "material" : 3
                }
            ]
        },
        {
            "name" : "Burbujas.001_0",
            "primitives" : [
                {
                    "attributes" : {
                        "POSITION" : 12,
                        "NORMAL" : 13,
                        "TEXCOORD_0" : 14
                    },
                    "indices" : 8,
                    "material" : 3
                }
            ]
        },
        {
            "name" : "Pecera_0",
            "primitives" : [
                {
                    "attributes" : {
                        "POSITION" : 15,
                        "NORMAL" : 16
                    },
                    "indices" : 17,
                    "material" : 4
                }
            ]
        },
        {
            "name" : "Pez_payaso_0",
            "primitives" : [
                {
                    "attributes" : {
                        "POSITION" : 18,
                        "NORMAL" : 19,
                        "TEXCOORD_0" : 20
                    },
                    "indices" : 21,
                    "material" : 5
                }
            ]
        },
        {
            "name" : "Pez_payaso.003_0",
            "primitives" : [
                {
                    "attributes" : {
                        "POSITION" : 22,
                        "NORMAL" : 23,
                        "TEXCOORD_0" : 24
                    },
                    "indices" : 25,
                    "material" : 5
                }
            ]
        }
    ],
    "accessors" : [
        {
            "bufferView" : 0,
            "componentType" : 5126,
            "count" : 24,
            "max" : [
                1,
                1,
                1
            ],
            "min" : [
                -1,
                -1,
                -1
            ],
            "type" : "VEC3"
        },
        {
            "bufferView" : 1,
            "componentType" : 5126,
            "count" : 24,
            "type" : "VEC3"
        },
        {
            "bufferView" : 2,
            "componentType" : 5123,
            "count" : 36,
            "type" : "SCALAR"
        },
        {
            "bufferView" : 3,
            "componentType" : 5126,
            "count" : 141,
            "max" : [
                1,
                1,
                1.5169700384140015
            ],
            "min" : [
                -1,
                -1,
                -1
            ],
            "type" : "VEC3"
        },
        {
            "bufferView" : 4,
            "componentType" : 5126,
            "count" : 141,
            "type" : "VEC3"
        },
        {
            "bufferView" : 5,
            "componentType" : 5123,
            "count" : 288,
            "type" : "SCALAR"
        },
        {
            "bufferView" : 6,
            "componentType" : 5126,
            "count" : 4,
            "max" : [
                1,
                1,
                0
            ],
            "min" : [
                -1,
                -1,
                0
            ],
            "type" : "VEC3"
        },
        {
            "bufferView" : 7,
            "componentType" : 5126,
            "count" : 4,
            "type" : "VEC3"
        },
        {
            "bufferView" : 8,
            "componentType" : 5123,
            "count" : 6,
            "type" : "SCALAR"
        },
        {
            "bufferView" : 9,
            "componentType" : 5126,
            "count" : 4,
            "max" : [
                0.5,
                0.5,
                0
            ],
            "min" : [
                -0.5,
                -0.5,
                0
            ],
            "type" : "VEC3"
        },
        {
            "bufferView" : 10,
            "componentType" : 5126,
            "count" : 4,
            "type" : "VEC3"
        },
        {
            "bufferView" : 11,
            "componentType" : 5126,
            "count" : 4,
            "type" : "VEC2"
        },
        {
            "bufferView" : 12,
            "componentType" : 5126,
            "count" : 4,
            "max" : [
                0.5,
                0.5,
                0
            ],
            "min" : [
                -0.5,
                -0.5,
                0
            ],
            "type" : "VEC3"
        },
        {
            "bufferView" : 13,
            "componentType" : 5126,
            "count" : 4,
            "type" : "VEC3"
        },
        {
            "bufferView" : 14,
            "componentType" : 5126,
            "count" : 4,
            "type" : "VEC2"
        },
        {
            "bufferView" : 15,
            "componentType" : 5126,
            "count" : 72,
            "max" : [
                1,
                1,
                1
            ],
            "min" : [
                -1,
                -1,
                -1
            ],
            "type" : "VEC3"
        },
        {
            "bufferView" : 16,
            "componentType" : 5126,
            "count" : 72,
            "type" : "VEC3"
        },
        {
            "bufferView" : 17,
            "componentType" : 5123,
            "count" : 84,
            "type" : "SCALAR"
        },
        {
            "bufferView" : 18,
            "componentType" : 5126,
            "count" : 128,
            "max" : [
                2.650059938430786,
                0.2804900109767914,
                1.6790399551391602
            ],
            "min" : [
                -2.880350112915039,
                -0.2804900109767914,
                -1.5799100399017334
            ],
            "type" : "VEC3"
        },
        {
            "bufferView" : 19,
            "componentType" : 5126,
            "count" : 128,
            "type" : "VEC3"
        },
        {
            "bufferView" : 20,
            "componentType" : 5126,
            "count" : 128,
            "type" : "VEC2"
        },
        {
            "bufferView" : 21,
            "componentType" : 5123,
            "count" : 192,
            "type" : "SCALAR"
        },
        {
            "bufferView" : 22,
            "componentType" : 5126,
            "count" : 110,
            "max" : [
                2.650059938430786,
                0.2804900109767914,
                1.6790399551391602
            ],
            "min" : [
                -2.880350112915039,
                -0.2804900109767914,
                -1.5799100399017334
            ],
            "type" : "VEC3"
        },
        {
            "bufferView" : 23,
            "componentType" : 5126,
            "count" : 110,
            "type" : "VEC3"
        },
        {
            "bufferView" : 24,
            "componentType" : 5126,
            "count" : 110,
            "type" : "VEC2"
        },
        {
            "bufferView" : 25,
            "componentType" : 5123,
            "count" : 168,
            "type" : "SCALAR"
        }
    ],
    "bufferViews" : [
        {
            "buffer" : 0,
            "byteLength" : 288,
            "byteOffset" : 0
        },
        {
            "buffer" : 0,
            "byteLength" : 288,
            "byteOffset" : 288
        },
        {
            "buffer" : 0,
            "byteLength" : 72,
            "byteOffset" : 576
        },
        {
            "buffer" : 0,
            "byteLength" : 1692,
            "byteOffset" : 648
        },
        {
            "buffer" : 0,
            "byteLength" : 1692,
            "byteOffset" : 2340
        },
        {
            "buffer" : 0,
            "byteLength" : 576,
            "byteOffset" : 4032
        },
        {
            "buffer" : 0,
            "byteLength" : 48,
            "byteOffset" : 4608
        },
        {
            "buffer" : 0,
            "byteLength" : 48,
            "byteOffset" : 4656
        },
        {
            "buffer" : 0,
            "byteLength" : 12,
            "byteOffset" : 4704
        },
        {
            "buffer" : 0,
            "byteLength" : 48,
            "byteOffset" : 4716
        },
        {
            "buffer" : 0,
            "byteLength" : 48,
            "byteOffset" : 4764
        },
        {
            "buffer" : 0,
            "byteLength" : 32,
            "byteOffset" : 4812
        },
        {
            "buffer" : 0,
            "byteLength" : 48,
            "byteOffset" : 4844
        },
        {
            "buffer" : 0,
            "byteLength" : 48,
            "byteOffset" : 4892
        },
        {
            "buffer" : 0,
            "byteLength" : 32,
            "byteOffset" : 4940
        },
        {
            "buffer" : 0,
            "byteLength" : 864,
            "byteOffset" : 4972
        },
        {
            "buffer" : 0,
            "byteLength" : 864,
            "byteOffset" : 5836
        },
        {
            "buffer" : 0,
            "byteLength" : 168,
            "byteOffset" : 6700
        },
        {
            "buffer" : 0,
            "byteLength" : 1536,
            "byteOffset" : 6868
        },
        {
            "buffer" : 0,
            "byteLength" : 1536,
            "byteOffset" : 8404
        },
        {
            "buffer" : 0,
            "byteLength" : 1024,
            "byteOffset" : 9940
        },
        {
            "buffer" : 0,
            "byteLength" : 384,
            "byteOffset" : 10964
        },
        {
            "buffer" : 0,
            "byteLength" : 1320,
            "byteOffset" : 11348
        },
        {
            "buffer" : 0,
            "byteLength" : 1320,
            "byteOffset" : 12668
        },
        {
            "buffer" : 0,
            "byteLength" : 880,
            "byteOffset" : 13988
        },
        {
            "buffer" : 0,
            "byteLength" : 336,
            "byteOffset" : 14868
        }
    ],
    "buffers" : [
        {
            "byteLength" : 15204,
            "uri" : "data:application/octet-stream;base64,"
        }
    ]
}
